<svg width="2400" height="700" xmlns="http://www.w3.org/2000/svg">

 <g>
  <title>background</title>
  <rect fill="none" id="canvas_background" height="702" width="2402" y="-1" x="-1"/>
 </g>
 <g>
  <title>Layer 1</title>
  <path id="svg_1" fill="rgb(15,76,129)" d="m72.17315,353.31548c0.002,-163.282 132.565,-295.847 295.847,-295.847c54.427,0 105.442,14.729 149.271,40.416l-149.271,255.431l-295.847,0z"/>
  <path id="svg_2" fill="rgb(244,218,131)" d="m517.29115,608.74648c-43.829,25.687 -94.844,40.416 -149.271,40.416c-163.282,0 -295.845,-132.565 -295.847,-295.847l295.847,0l149.271,255.431z"/>
  <path id="svg_3" fill="rgb(255,242,197)" d="m663.86715,353.31548c0,108.855 -58.918,204.058 -146.576,255.431l-149.271,-255.431l295.847,0z"/>
  <path id="svg_4" fill="rgb(207,226,243)" d="m517.29115,97.88448c87.658,51.373 146.576,146.576 146.576,255.431l-295.847,0l149.271,-255.431z"/>
  <path id="svg_5" fill="rgb(15,76,129)" fill-rule="evenodd" d="m832.04315,546.48148l0,51.881c149.657,0 271.159,-110.149 271.159,-245.821c0,-135.673 -121.502,-245.822 -271.159,-245.822l0,51.881c121.857,4.04 219.33,89.392 219.33,193.941c0,104.548 -97.473,189.901 -219.33,193.94z"/>
  <rect id="svg_6" fill="rgb(15,76,129)" height="53.778" width="271.159" y="106.71948" x="1222.70915"/>
  <rect id="svg_7" fill="rgb(15,76,129)" transform="matrix(0,-1,1,0,830.011,3831.445) " height="53.778" width="494.625" y="1164.49815" x="3230.10052"/>
  <path id="svg_8" fill="rgb(15,76,129)" d="m2180.13715,284.75148l129.03,-179.667l-74.857,1.155l0,0l-128.201,178.512l74.028,0l0,0z"/>
  <path id="svg_9" fill="rgb(15,76,129)" d="m2179.79715,420.33148l129.37,181.215l0,0l-73.797,-0.154l-129.261,-181.061l73.688,0l0,0z"/>
  <rect id="svg_10" fill="rgb(15,76,129)" height="51.731" width="271.159" y="546.63148" x="1222.70915"/>
  <rect id="svg_11" fill="rgb(15,76,129)" height="53.778" width="207.889" y="326.67548" x="1222.70915"/>
  <g id="svg_12">
   <path id="svg_13" fill="rgb(15,76,129)" fill-rule="evenodd" d="m1875.90215,173.85248l0.112,-0.166l0,-56.362c-22.22,-6.967 -46.886,-10.605 -72.746,-10.605c-105.393,0 -190.959,60.417 -190.959,134.834c0,15.116 3.531,29.654 10.13,43.198l57.386,0l1.59,-0.608c-8.582,-11.437 -13.29,-24.323 -13.29,-37.929c0,-48.438 59.67,-87.763 133.166,-87.763c27.742,0 53.514,5.603 74.611,15.401z"/>
  </g>
  <g id="svg_14">
   <path id="svg_15" fill="rgb(15,76,129)" fill-rule="evenodd" d="m1612.42115,531.23048l-0.112,0.165l0,56.363c22.221,6.967 46.887,10.604 72.746,10.604c105.393,0 190.959,-60.417 190.959,-134.834c0,-15.116 -3.53,-29.654 -10.13,-43.197l-57.385,0l-1.591,0.608c8.582,11.436 13.29,24.323 13.29,37.928c0,48.438 -59.67,87.764 -133.166,87.764c-27.742,0 -53.514,-5.603 -74.611,-15.401z"/>
  </g>
 </g>
</svg>