<?xml version="1.0" encoding="UTF-8" standalone="no"?><!-- Generator: Gravit.io --><svg xmlns="http://www.w3.org/2000/svg" xmlns:xlink="http://www.w3.org/1999/xlink" style="isolation:isolate" viewBox="0 0 3000 3000" width="3000pt" height="3000pt"><path d=" M 381.503 1500 C 381.505 1336.718 514.068 1204.153 677.35 1204.153 C 731.777 1204.153 782.792 1218.882 826.621 1244.569 L 677.35 1500 L 381.503 1500 Z " fill="rgb(15,76,129)"/><path d=" M 826.621 1755.431 C 782.792 1781.118 731.777 1795.847 677.35 1795.847 C 514.068 1795.847 381.505 1663.282 381.503 1500 L 677.35 1500 L 826.621 1755.431 Z " fill="rgb(244,218,131)"/><path d=" M 973.197 1500 C 973.197 1608.855 914.279 1704.058 826.621 1755.431 L 677.35 1500 L 973.197 1500 Z " fill="rgb(255,242,197)"/><path d=" M 826.621 1244.569 C 914.279 1295.942 973.197 1391.145 973.197 1500 L 677.35 1500 L 826.621 1244.569 Z " fill="rgb(207,226,243)"/><path d=" M 1141.373 1693.166 L 1141.373 1745.047 C 1291.03 1745.047 1412.532 1634.898 1412.532 1499.226 C 1412.532 1363.553 1291.03 1253.404 1141.373 1253.404 L 1141.373 1305.285 C 1263.23 1309.325 1360.703 1394.677 1360.703 1499.226 C 1360.703 1603.774 1263.23 1689.127 1141.373 1693.166 Z " fill-rule="evenodd" fill="rgb(15,76,129)"/><rect x="1532.039" y="1253.404" width="271.159" height="53.778" transform="matrix(1,0,0,1,0,0)" fill="rgb(15,76,129)"/><rect x="2083.416" y="1473.828" width="494.625" height="53.778" transform="matrix(0,-1,1,0,830.011,3831.445)" fill="rgb(15,76,129)"/><path d=" M 2489.467 1431.436 L 2618.497 1251.769 L 2543.64 1252.924 L 2543.64 1252.924 L 2415.439 1431.436 L 2489.467 1431.436 L 2489.467 1431.436 Z " fill="rgb(15,76,129)"/><path d=" M 2489.127 1567.016 L 2618.497 1748.231 L 2618.497 1748.231 L 2544.7 1748.077 L 2415.439 1567.016 L 2489.127 1567.016 L 2489.127 1567.016 Z " fill="rgb(15,76,129)"/><rect x="1532.039" y="1693.316" width="271.159" height="51.731" transform="matrix(1,0,0,1,0,0)" fill="rgb(15,76,129)"/><rect x="1532.039" y="1473.36" width="207.889" height="53.778" transform="matrix(1,0,0,1,0,0)" fill="rgb(15,76,129)"/><g><path d=" M 2185.232 1320.537 L 2185.344 1320.371 L 2185.344 1264.009 C 2163.124 1257.042 2138.458 1253.404 2112.598 1253.404 C 2007.205 1253.404 1921.639 1313.821 1921.639 1388.238 C 1921.639 1403.354 1925.17 1417.892 1931.769 1431.436 L 1989.155 1431.436 L 1990.745 1430.828 C 1982.163 1419.391 1977.455 1406.505 1977.455 1392.899 C 1977.455 1344.461 2037.125 1305.136 2110.621 1305.136 C 2138.363 1305.136 2164.135 1310.739 2185.232 1320.537 Z " fill-rule="evenodd" fill="rgb(15,76,129)"/></g><g><path d=" M 1921.751 1677.915 L 1921.639 1678.08 L 1921.639 1734.443 C 1943.86 1741.41 1968.526 1745.047 1994.385 1745.047 C 2099.778 1745.047 2185.344 1684.63 2185.344 1610.213 C 2185.344 1595.097 2181.814 1580.559 2175.214 1567.016 L 2117.829 1567.016 L 2116.238 1567.624 C 2124.82 1579.06 2129.528 1591.947 2129.528 1605.552 C 2129.528 1653.99 2069.858 1693.316 1996.362 1693.316 C 1968.62 1693.316 1942.848 1687.713 1921.751 1677.915 Z " fill-rule="evenodd" fill="rgb(15,76,129)"/></g></svg>