<svg width="20" height="34.892337" xmlns="http://www.w3.org/2000/svg">

 <metadata id="metadata3460">image/svg+xml</metadata>
 <g>
  <title>background</title>
  <rect fill="none" id="canvas_background" height="602" width="802" y="-1" x="-1"/>
 </g>
 <g>
  <title>Layer 1</title>
  <path fill="#0f4c82" stroke="#0f4c82" stroke-miterlimit="4" d="m2.98354,3.70267c-1.49166,1.59197 -2.42598,3.91102 -2.3897,6.09233c0.07576,4.55829 2.13041,6.28384 5.41618,12.55747c1.18359,2.76065 2.41891,5.68176 3.59381,10.51976c0.16328,0.71364 0.32251,1.37651 0.39618,1.43394c0.07362,0.0575 0.2329,-0.60775 0.39618,-1.32139c1.17489,-4.83799 2.41021,-7.75679 3.59381,-10.51743c3.28577,-6.27363 5.3404,-7.99919 5.41618,-12.55748c0.03628,-2.18131 -0.90036,-4.50268 -2.39201,-6.09464c-1.70397,-1.81856 -4.27408,-3.16442 -7.01415,-3.2207c-2.74007,-0.05632 -5.31249,1.2896 -7.01646,3.10815z" id="path4337-3"/>
  <circle transform="matrix(1.1855854,0,0,1.1855854,-151.17715,-57.3976) " fill="#fff2c5" stroke-width="0" id="path3049" cx="135.94733" cy="56.81755" r="3.0355"/>
 </g>
</svg>