<svg width="32" height="48" xmlns="http://www.w3.org/2000/svg">

 <g>
  <title>background</title>
  <rect fill="none" id="canvas_background" height="50" width="34" y="-1" x="-1"/>
 </g>
 <g>
  <title>Layer 1</title>
  <ellipse ry="7.31481" rx="7.31481" id="svg_19" cy="16.77778" cx="16.18518" stroke-width="1.5" fill="#fff2c5"/>
  <g stroke="null" transform="matrix(0.02200688292604021,0,0,0.023486653694844806,-218.1336995899962,-373.5253490717799) " id="svg_56">
   <title stroke="null" transform="translate(56.297706604003906,67.82230377197266) translate(3.168929100036621,-41.19607925415039) translate(-718.825439453125,-4243.38916015625) translate(-220.2852020263672,2318.791748046875) translate(11145.669921875,0) translate(0,18168.505859375) ">Layer 1</title>
   <path stroke="null" d="m10338.19907,16623.85015c0.002,-163.282 132.565,-295.847 295.847,-295.847c54.427,0 105.442,14.729 149.271,40.416l-149.271,255.431l-295.847,0z" fill="rgb(15,76,129)" id="svg_52"/>
   <path stroke="null" d="m10783.31707,16879.28115c-43.829,25.687 -94.844,40.416 -149.271,40.416c-163.282,0 -295.845,-132.565 -295.847,-295.847l295.847,0l149.271,255.431z" fill="rgb(244,218,131)" id="svg_51"/>
   <path stroke="null" d="m10929.89307,16623.85015c0,108.855 -58.918,204.058 -146.576,255.431l-149.271,-255.431l295.847,0z" fill="rgb(255,242,197)" id="svg_50"/>
   <path stroke="null" d="m10783.31707,16368.41915c87.658,51.373 146.576,146.576 146.576,255.431l-295.847,0l149.271,-255.431z" fill="rgb(207,226,243)" id="svg_49"/>
  </g>
  <g id="svg_1" transform="matrix(0.1,0,0,0.1,191.6838020324707,191.68378143310548) ">
   <g id="svg_2">
    <path id="svg_3" fill="#0f4c82" d="m-1755.97422,-1887.77775l-0.608,0c-73.563,0 -133.409,59.826 -133.409,133.361c0,48.202 21.952,111.817 65.246,189.081c32.098,57.281 64.646,101.152 64.972,101.588c0.906,1.217 2.334,1.934 3.847,1.934c0.043,0 0.087,0 0.13,-0.002c1.561,-0.043 3.002,-0.842 3.868,-2.143c0.321,-0.486 32.637,-49.287 64.517,-108.976c43.03,-80.563 64.848,-141.624 64.848,-181.482c-0.003,-73.536 -59.85,-133.361 -133.411,-133.361zm61.58,136.62c0,34.124 -27.761,61.884 -61.885,61.884c-34.123,0 -61.884,-27.761 -61.884,-61.884s27.761,-61.884 61.884,-61.884c34.124,0 61.885,27.761 61.885,61.884z"/>
   </g>
   <g id="svg_4"/>
   <g id="svg_5"/>
   <g id="svg_6"/>
   <g id="svg_7"/>
   <g id="svg_8"/>
   <g id="svg_9"/>
   <g id="svg_10"/>
   <g id="svg_11"/>
   <g id="svg_12"/>
   <g id="svg_13"/>
   <g id="svg_14"/>
   <g id="svg_15"/>
   <g id="svg_16"/>
   <g id="svg_17"/>
   <g id="svg_18"/>
  </g>
  <g stroke="null" transform="matrix(0.007632897957511052,0,0,0.007632897957511052,-70.62263686663346,-115.12563158081866) " id="svg_55">
   <title stroke="null" transform="translate(-336.22479248046875,1669.530029296875) translate(475.352294921875,-3130.368896484375) translate(-220.2852020263672,2318.791748046875) translate(11145.669921875,0) translate(0,18168.505859375) ">background</title>
   <rect stroke="null" x="11063.51222" y="19025.45874" width="2402" height="702" id="svg_53" fill="none"/>
  </g>
 </g>
</svg>